<?xml version="1.0" encoding="UTF-8" standalone="no"?>
<svg
   xmlns:dc="http://purl.org/dc/elements/1.1/"
   xmlns:cc="http://creativecommons.org/ns#"
   xmlns:rdf="http://www.w3.org/1999/02/22-rdf-syntax-ns#"
   xmlns:svg="http://www.w3.org/2000/svg"
   xmlns="http://www.w3.org/2000/svg"
   version="1.0"
   id="svg8"
   width="703.20154"
   height="172.85918"
   viewBox="0 0.9 710.70233 174.47253">
  <metadata
     id="metadata14">
    <rdf:RDF>
      <cc:Work
         rdf:about="">
        <dc:format>image/svg+xml</dc:format>
        <dc:type
           rdf:resource="http://purl.org/dc/dcmitype/StillImage" />
        <dc:title></dc:title>
      </cc:Work>
    </rdf:RDF>
  </metadata>
  <defs
     id="defs12" />
  <path
     fill="currentColor"
     class="text"
     d="m 136.2923,30.586003 c 1.401,0.89 3.04,1.402 5.263,1.402 2.941,0 5.368,-1.504 5.368,-4.888 0,-4.685 -10.94,-5.266 -10.94,-11.521 0,-3.829 3.35,-6.2219999 7.556,-6.2219999 1.162,0 3.041,0.17 4.684,0.7849999 l -0.377,2.155 c -1.059,-0.582 -2.736,-0.89 -4.342,-0.89 -2.46,0 -5.161,1.026 -5.161,4.103 0,4.787 10.938,4.82 10.938,11.795 0,4.82 -4.135,6.734 -7.828,6.734 -2.325,0 -4.136,-0.479 -5.402,-1.026 l 0.24,-2.427 m 31.519,-12.068 c -1.161,-0.512 -2.563,-0.888 -3.726,-0.888 -4.205,0 -6.565,3.043 -6.565,7.281 0,3.967 2.394,7.284 6.325,7.284 1.368,0 2.634,-0.31 3.933,-0.788 l 0.205,2.018 c -1.471,0.511 -2.84,0.614 -4.479,0.614 -5.608,0 -8.342,-4.274 -8.342,-9.128 0,-5.368 3.453,-9.128 8.616,-9.128 2.084,0 3.588,0.479 4.205,0.683 l -0.172,2.052 m 6.496,-10.5299999 h 2.153 V 19.134003 h 0.07 c 0.923,-1.913 2.871,-3.35 5.434,-3.35 4.685,0 5.949,3.112 5.949,7.419 v 10.426 h -2.154 v -10.393 c 0,-3.008 -0.58,-5.606 -4.135,-5.606 -3.829,0 -5.164,3.624 -5.164,6.667 v 9.332 h -2.153 V 7.9890031 m 39.589,25.6399999 h -2.598 l -4.752,-15.076 h -0.069 l -4.752,15.076 h -2.598 l -5.606,-17.436 h 2.358 l 4.58,15.078 h 0.07 l 4.854,-15.078 h 2.598 l 4.616,15.078 h 0.067 l 4.82,-15.078 h 2.154 l -5.742,17.436 m 21.982,-9.948 c 0,-3.043 -1.23,-6.051 -4.443,-6.051 -3.18,0 -5.13,3.179 -5.13,6.05 h 9.573 z m 1.061,9.401 c -1.504,0.616 -3.453,0.957 -5.06,0.957 -5.778,0 -7.932,-3.898 -7.932,-9.128 0,-5.332 2.941,-9.128 7.35,-9.128 4.924,0 6.941,3.967 6.941,8.65 v 1.094 h -11.932 c 0,3.693 1.984,6.668 5.744,6.668 1.572,0 3.863,-0.65 4.889,-1.3 v 2.187 m 8.067,-16.889 h 2.153 v 17.436 h -2.153 z m 2.153,-4.65 h -2.153 V 8.6730031 h 2.153 v 2.8699999 m 6.498,20.275 10.496,-13.779 h -10.087 v -1.846 h 12.58 v 1.846 l -10.492,13.744 h 10.494 v 1.846 h -12.99 v -1.81 m 30.081,-8.138 c 0,-3.043 -1.23,-6.051 -4.443,-6.051 -3.181,0 -5.13,3.179 -5.13,6.05 h 9.573 z m 1.06,9.401 c -1.503,0.616 -3.452,0.957 -5.06,0.957 -5.778,0 -7.931,-3.898 -7.931,-9.128 0,-5.332 2.941,-9.128 7.35,-9.128 4.923,0 6.941,3.967 6.941,8.65 v 1.094 h -11.933 c 0,3.693 1.985,6.668 5.744,6.668 1.573,0 3.864,-0.65 4.89,-1.3 v 2.187 m 8.068,-12.992 c 0,-1.913 0,-2.631 -0.135,-3.897 h 2.153 v 3.35 h 0.067 c 0.788,-1.946 2.258,-3.76 4.48,-3.76 a 6.43,6.43 0 0 1 1.504,0.205 v 2.258 c -0.445,-0.138 -1.025,-0.207 -1.573,-0.207 -3.419,0 -4.342,3.831 -4.342,6.974 v 8.616 h -2.154 v -13.539 m 14.051,-3.897 h 2.153 v 17.436 h -2.153 z m 2.153,-4.65 h -2.153 V 8.6730031 h 2.153 v 2.8699999 m 6.77,19.557 c 1.3,0.65 2.872,1.095 4.547,1.095 2.051,0 3.862,-1.13 3.862,-3.113 0,-4.135 -8.376,-3.486 -8.376,-8.547 0,-3.452 2.803,-4.752 5.675,-4.752 0.924,0 2.77,0.205 4.307,0.788 l -0.204,1.88 c -1.128,-0.514 -2.666,-0.821 -3.862,-0.821 -2.222,0 -3.762,0.683 -3.762,2.905 0,3.248 8.58,2.839 8.58,8.547 0,3.693 -3.452,4.957 -6.084,4.957 -1.675,0 -3.35,-0.205 -4.887,-0.819 l 0.204,-2.12 m 28.647,-12.582 c -1.162,-0.512 -2.563,-0.888 -3.727,-0.888 -4.204,0 -6.564,3.043 -6.564,7.281 0,3.967 2.393,7.284 6.324,7.284 1.368,0 2.634,-0.31 3.933,-0.788 l 0.205,2.018 c -1.47,0.511 -2.839,0.614 -4.478,0.614 -5.609,0 -8.343,-4.274 -8.343,-9.128 0,-5.368 3.453,-9.128 8.616,-9.128 2.085,0 3.589,0.479 4.205,0.683 l -0.171,2.052 m 6.495,-10.5299999 h 2.154 V 19.134003 h 0.07 c 0.922,-1.913 2.87,-3.35 5.434,-3.35 4.685,0 5.948,3.112 5.948,7.419 v 10.426 h -2.153 v -10.393 c 0,-3.008 -0.58,-5.606 -4.136,-5.606 -3.828,0 -5.163,3.624 -5.163,6.667 v 9.332 h -2.153 V 7.9890031 m 32.306,15.6919999 c 0,-3.043 -1.23,-6.051 -4.443,-6.051 -3.181,0 -5.13,3.179 -5.13,6.05 h 9.573 z m 1.06,9.401 c -1.503,0.616 -3.452,0.957 -5.06,0.957 -5.778,0 -7.931,-3.898 -7.931,-9.128 0,-5.332 2.941,-9.128 7.35,-9.128 4.923,0 6.941,3.967 6.941,8.65 v 1.094 h -11.933 c 0,3.693 1.985,6.668 5.744,6.668 1.573,0 3.864,-0.65 4.89,-1.3 v 2.187 m 19.452,-23.3159999 h 11.69 v 2.0499999 h -9.332 v 8.515 h 8.854 v 2.05 h -8.854 v 9.197 h 9.744 v 2.051 h -12.102 V 9.7660031 m 19.521,6.4269999 h 2.154 v 17.436 h -2.154 z m 2.154,-4.65 h -2.154 V 8.6730031 h 2.154 v 2.8699999 m 14.598,20.652 c 3.828,0 5.16,-4.105 5.16,-7.284 0,-3.179 -1.332,-7.281 -5.16,-7.281 -4.103,0 -5.164,3.897 -5.164,7.281 0,3.386 1.061,7.284 5.164,7.284 z m 7.316,1.434 h -2.155 v -2.77 h -0.067 c -1.163,2.223 -2.941,3.18 -5.437,3.18 -4.785,0 -7.179,-3.964 -7.179,-9.128 0,-5.3 2.051,-9.128 7.179,-9.128 3.419,0 5.127,2.497 5.437,3.35 h 0.067 V 7.9890031 h 2.155 V 33.630003 m 14.223,-1.847 c 3.895,0 5.298,-3.693 5.298,-6.872 0,-4.204 -1.23,-7.281 -5.162,-7.281 -4.1,0 -5.162,3.897 -5.162,7.281 0,3.42 1.367,6.872 5.026,6.872 z m 7.453,0.412 c 0,4.854 -2.187,8.818 -8.169,8.818 -2.291,0 -4.378,-0.65 -5.266,-0.923 l 0.168,-2.154 c 1.335,0.686 3.249,1.233 5.13,1.233 5.54,0 6.019,-4.036 6.019,-8.959 h -0.069 c -1.161,2.53 -3.08,3.42 -5.298,3.42 -5.577,0 -7.355,-4.855 -7.355,-8.719 0,-5.3 2.052,-9.128 7.182,-9.128 2.323,0 3.827,0.307 5.435,2.394 h 0.068 v -1.984 h 2.155 v 16.002 m 18.493,-8.514 c 0,-3.043 -1.23,-6.051 -4.442,-6.051 -3.18,0 -5.13,3.179 -5.13,6.05 h 9.572 z m 1.062,9.401 c -1.504,0.616 -3.454,0.957 -5.062,0.957 -5.777,0 -7.927,-3.898 -7.927,-9.128 0,-5.332 2.938,-9.128 7.348,-9.128 4.92,0 6.94,3.967 6.94,8.65 v 1.094 h -11.933 c 0,3.693 1.986,6.668 5.745,6.668 1.572,0 3.864,-0.65 4.889,-1.3 v 2.187 m 8.069,-12.785 c 0,-1.335 0,-2.7 -0.137,-4.104 h 2.087 v 3.112 h 0.068 c 0.715,-1.573 2.014,-3.522 5.64,-3.522 4.31,0 5.946,2.872 5.946,6.701 v 11.145 h -2.15 v -10.598 c 0,-3.281 -1.162,-5.401 -4.137,-5.401 -3.932,0 -5.162,3.453 -5.162,6.358 v 9.641 h -2.155 v -13.332 m 28.479,11.898 c 3.76,0 5.777,-3.248 5.777,-7.284 0,-4.033 -2.018,-7.281 -5.777,-7.281 -3.763,0 -5.781,3.248 -5.781,7.281 0,4.036 2.018,7.284 5.781,7.284 z m 0,-16.412 c 5.64,0 8.137,4.376 8.137,9.128 0,4.752 -2.496,9.128 -8.137,9.128 -5.64,0 -8.137,-4.376 -8.137,-9.128 0,-4.752 2.497,-9.128 8.137,-9.128 m 13.536,15.317 c 1.299,0.65 2.875,1.095 4.547,1.095 2.05,0 3.864,-1.13 3.864,-3.113 0,-4.135 -8.374,-3.486 -8.374,-8.547 0,-3.452 2.802,-4.752 5.672,-4.752 0.925,0 2.77,0.205 4.305,0.788 l -0.2,1.88 c -1.13,-0.514 -2.665,-0.821 -3.864,-0.821 -2.223,0 -3.763,0.683 -3.763,2.905 0,3.248 8.584,2.839 8.584,8.547 0,3.693 -3.454,4.957 -6.087,4.957 -1.677,0 -3.349,-0.205 -4.889,-0.819 l 0.205,-2.12 m 15.965,0 c 1.298,0.65 2.874,1.095 4.547,1.095 2.05,0 3.863,-1.13 3.863,-3.113 0,-4.135 -8.378,-3.486 -8.378,-8.547 0,-3.452 2.806,-4.752 5.676,-4.752 0.925,0 2.77,0.205 4.306,0.788 l -0.205,1.88 c -1.126,-0.514 -2.66,-0.821 -3.86,-0.821 -2.223,0 -3.763,0.683 -3.763,2.905 0,3.248 8.584,2.839 8.584,8.547 0,3.693 -3.453,4.957 -6.087,4.957 -1.676,0 -3.348,-0.205 -4.888,-0.819 l 0.205,-2.12 m 27.933,-7.419 c 0,-3.043 -1.235,-6.051 -4.447,-6.051 -3.18,0 -5.13,3.179 -5.13,6.05 h 9.577 z m 1.057,9.401 c -1.504,0.616 -3.45,0.957 -5.058,0.957 -5.777,0 -7.932,-3.898 -7.932,-9.128 0,-5.332 2.94,-9.128 7.35,-9.128 4.924,0 6.943,3.967 6.943,8.65 v 1.094 h -11.937 c 0,3.693 1.986,6.668 5.745,6.668 1.572,0 3.864,-0.65 4.889,-1.3 v 2.187 m 8.068,-12.785 c 0,-1.335 0,-2.7 -0.136,-4.104 h 2.086 v 3.112 h 0.069 c 0.715,-1.573 2.014,-3.522 5.64,-3.522 4.306,0 5.946,2.872 5.946,6.701 v 11.145 h -2.15 v -10.598 c 0,-3.281 -1.163,-5.401 -4.138,-5.401 -3.931,0 -5.162,3.453 -5.162,6.358 v 9.641 h -2.155 v -13.332 m 20.343,10.803 c 1.299,0.65 2.87,1.095 4.547,1.095 2.05,0 3.859,-1.13 3.859,-3.113 0,-4.135 -8.374,-3.486 -8.374,-8.547 0,-3.452 2.802,-4.752 5.677,-4.752 0.92,0 2.77,0.205 4.305,0.788 l -0.205,1.88 c -1.125,-0.514 -2.665,-0.821 -3.863,-0.821 -2.22,0 -3.759,0.683 -3.759,2.905 0,3.248 8.584,2.839 8.584,8.547 0,3.693 -3.459,4.957 -6.087,4.957 -1.677,0 -3.354,-0.205 -4.894,-0.819 l 0.21,-2.12 m 28.648,-12.582 c -1.161,-0.512 -2.565,-0.888 -3.726,-0.888 -4.206,0 -6.566,3.043 -6.566,7.281 0,3.967 2.392,7.284 6.324,7.284 1.372,0 2.633,-0.31 3.937,-0.788 l 0.2,2.018 c -1.467,0.511 -2.838,0.614 -4.474,0.614 -5.608,0 -8.347,-4.274 -8.347,-9.128 0,-5.368 3.454,-9.128 8.62,-9.128 2.082,0 3.586,0.479 4.2,0.683 l -0.168,2.052 m 6.497,-10.5299999 h 2.15 V 19.134003 h 0.07 c 0.924,-1.913 2.874,-3.35 5.434,-3.35 4.684,0 5.95,3.112 5.95,7.419 v 10.426 h -2.15 v -10.393 c 0,-3.008 -0.583,-5.606 -4.137,-5.606 -3.831,0 -5.166,3.624 -5.166,6.667 v 9.332 h -2.15 V 7.9890031 m 31.481,16.8539999 h -0.61 c -3.731,0 -8.169,0.377 -8.169,4.206 0,2.289 1.636,3.146 3.617,3.146 5.062,0 5.162,-4.412 5.162,-6.292 z m 0.206,5.983 h -0.064 c -0.957,2.085 -3.39,3.213 -5.54,3.213 -4.957,0 -5.745,-3.35 -5.745,-4.923 0,-5.844 6.223,-6.118 10.733,-6.118 h 0.41 v -0.89 c 0,-2.974 -1.056,-4.478 -3.963,-4.478 -1.809,0 -3.518,0.41 -5.13,1.435 v -2.085 c 1.335,-0.65 3.59,-1.197 5.13,-1.197 4.305,0 6.119,1.95 6.119,6.496 v 7.693 c 0,1.402 0,2.46 0.173,3.657 h -2.123 v -2.803 m 11.212,-12.787 h -3.517 v -1.846 h 3.517 v -1.264 c 0,-3.657 0.137,-7.3499999 4.62,-7.3499999 0.679,0 1.604,0.102 2.014,0.343 l -0.137,1.88 c -0.447,-0.24 -1.094,-0.376 -1.709,-0.376 -2.943,0 -2.633,3.1789999 -2.633,5.2629999 v 1.504 h 3.932 v 1.846 h -3.932 v 15.59 h -2.155 v -15.59 m 20.101,0 h -3.964 v 11.284 c 0,1.572 0.584,2.872 2.329,2.872 0.82,0 1.366,-0.172 1.977,-0.412 l 0.141,1.777 c -0.515,0.205 -1.572,0.479 -2.633,0.479 -3.827,0 -3.969,-2.632 -3.969,-5.811 v -10.189 h -3.417 v -1.846 h 3.417 v -4.205 l 2.155,-0.752 v 4.957 h 3.964 v 1.846 m -557.176,41.55 c -1.504,-0.786 -3.66,-1.026 -5.334,-1.026 -6.187,0 -9.676,4.376 -9.676,10.291 0,6.016 3.386,10.29 9.676,10.29 1.572,0 3.966,-0.206 5.334,-1.026 l 0.136,2.051 c -1.3,0.787 -3.965,1.025 -5.47,1.025 -7.522,0 -12.033,-4.956 -12.033,-12.34 0,-7.248 4.649,-12.342 12.033,-12.342 1.401,0 4.24,0.24 5.47,0.89 l -0.136,2.187 m 14.803,19.761 c 3.762,0 5.777,-3.248 5.777,-7.283 0,-4.033 -2.015,-7.281 -5.777,-7.281 -3.76,0 -5.778,3.248 -5.778,7.28 0,4.036 2.018,7.284 5.778,7.284 z m 0,-16.411 c 5.641,0 8.137,4.376 8.137,9.128 0,4.751 -2.496,9.127 -8.137,9.127 -5.64,0 -8.136,-4.376 -8.136,-9.127 0,-4.752 2.496,-9.128 8.136,-9.128 m 14.871,4.514 c 0,-1.335 0,-2.7 -0.135,-4.105 h 2.084 v 3.113 h 0.07 c 0.716,-1.573 2.015,-3.522 5.638,-3.522 4.31,0 5.95,2.872 5.95,6.7 v 11.146 h -2.154 v -10.598 c 0,-3.281 -1.162,-5.401 -4.136,-5.401 -3.933,0 -5.163,3.452 -5.163,6.358 v 9.641 h -2.154 v -13.332 m 23.146,-2.258 h -3.522 v -1.847 h 3.521 v -1.263 c 0,-3.658 0.136,-7.35 4.614,-7.35 0.685,0 1.609,0.102 2.018,0.34 l -0.136,1.882 c -0.444,-0.24 -1.094,-0.376 -1.71,-0.376 -2.94,0 -2.632,3.18 -2.632,5.264 v 1.503 h 3.93 v 1.847 h -3.93 v 15.59 h -2.154 v -15.59 m 19.624,-8.581 h 2.7 l -4.306,4.924 h -1.573 z m 3.588,14.222 c 0,-3.043 -1.23,-6.05 -4.442,-6.05 -3.182,0 -5.13,3.179 -5.13,6.05 z m 1.061,9.402 c -1.504,0.616 -3.452,0.956 -5.06,0.956 -5.778,0 -7.932,-3.897 -7.932,-9.127 0,-5.333 2.941,-9.128 7.35,-9.128 4.924,0 6.941,3.967 6.941,8.65 v 1.094 h -11.931 c 0,3.693 1.984,6.667 5.743,6.667 1.573,0 3.865,-0.65 4.89,-1.3 v 2.188 m 14.562,-0.888 c 3.828,0 5.161,-4.104 5.161,-7.283 0,-3.18 -1.333,-7.281 -5.161,-7.281 -4.102,0 -5.164,3.897 -5.164,7.28 0,3.387 1.062,7.284 5.164,7.284 z m 7.316,1.435 h -2.155 v -2.77 h -0.067 c -1.164,2.223 -2.941,3.18 -5.437,3.18 -4.785,0 -7.179,-3.965 -7.179,-9.128 0,-5.3 2.051,-9.128 7.18,-9.128 3.419,0 5.127,2.496 5.436,3.35 h 0.067 v -11.145 h 2.155 v 25.641 m 14.905,-24.171 h 2.701 l -4.309,4.924 h -1.57 z m 3.589,14.222 c 0,-3.043 -1.23,-6.05 -4.443,-6.05 -3.18,0 -5.13,3.179 -5.13,6.05 z m 1.06,9.402 c -1.503,0.616 -3.452,0.956 -5.06,0.956 -5.777,0 -7.931,-3.897 -7.931,-9.127 0,-5.333 2.941,-9.128 7.35,-9.128 4.923,0 6.941,3.967 6.941,8.65 v 1.094 h -11.933 c 0,3.693 1.985,6.667 5.744,6.667 1.573,0 3.864,-0.65 4.89,-1.3 v 2.188 m 8.069,-12.992 c 0,-1.913 0,-2.632 -0.136,-3.898 h 2.153 v 3.353 h 0.067 c 0.788,-1.949 2.258,-3.762 4.48,-3.762 0.512,0 1.128,0.102 1.504,0.205 v 2.257 c -0.445,-0.137 -1.025,-0.206 -1.572,-0.206 -3.42,0 -4.343,3.829 -4.343,6.974 v 8.616 h -2.153 v -13.54 m 23.863,4.755 h -0.616 c -3.726,0 -8.171,0.376 -8.171,4.204 0,2.29 1.642,3.146 3.624,3.146 5.058,0 5.163,-4.411 5.163,-6.291 z m 0.205,5.982 h -0.07 c -0.956,2.085 -3.383,3.212 -5.538,3.212 -4.957,0 -5.742,-3.35 -5.742,-4.923 0,-5.844 6.222,-6.118 10.734,-6.118 h 0.411 v -0.89 c 0,-2.974 -1.061,-4.477 -3.966,-4.477 -1.814,0 -3.522,0.409 -5.128,1.434 v -2.084 c 1.333,-0.65 3.588,-1.197 5.128,-1.197 4.307,0 6.12,1.949 6.12,6.496 v 7.693 c 0,1.401 0,2.46 0.17,3.657 h -2.12 v -2.803 m 17.264,-12.787 h -3.966 v 11.283 c 0,1.573 0.582,2.872 2.324,2.872 0.821,0 1.368,-0.171 1.985,-0.412 l 0.135,1.778 c -0.511,0.205 -1.573,0.478 -2.632,0.478 -3.828,0 -3.966,-2.632 -3.966,-5.81 v -10.19 h -3.42 v -1.846 h 3.42 v -4.204 l 2.154,-0.752 v 4.956 h 3.966 v 1.847 m 6.529,-1.847 h 2.153 v 17.437 h -2.153 z m 2.153,-4.649 h -2.153 v -2.87 h 2.153 v 2.87 m 14.905,20.651 c 3.762,0 5.778,-3.248 5.778,-7.283 0,-4.033 -2.016,-7.281 -5.778,-7.281 -3.76,0 -5.777,3.248 -5.777,7.28 0,4.036 2.018,7.284 5.777,7.284 z m 0,-16.411 c 5.642,0 8.139,4.376 8.139,9.128 0,4.751 -2.497,9.127 -8.139,9.127 -5.639,0 -8.135,-4.376 -8.135,-9.127 0,-4.752 2.496,-9.128 8.135,-9.128 m 14.872,4.514 c 0,-1.335 0,-2.7 -0.135,-4.105 h 2.084 v 3.113 h 0.07 c 0.715,-1.573 2.014,-3.522 5.638,-3.522 4.31,0 5.949,2.872 5.949,6.7 v 11.146 h -2.153 v -10.598 c 0,-3.281 -1.161,-5.401 -4.136,-5.401 -3.933,0 -5.163,3.452 -5.163,6.358 v 9.641 h -2.154 v -13.332 m 32.173,10.802 c 1.3,0.65 2.872,1.095 4.547,1.095 2.051,0 3.862,-1.13 3.862,-3.112 0,-4.135 -8.376,-3.486 -8.376,-8.547 0,-3.453 2.803,-4.752 5.675,-4.752 0.924,0 2.77,0.205 4.307,0.785 l -0.205,1.882 c -1.127,-0.513 -2.665,-0.82 -3.861,-0.82 -2.223,0 -3.762,0.682 -3.762,2.905 0,3.248 8.582,2.838 8.582,8.547 0,3.693 -3.455,4.956 -6.087,4.956 -1.674,0 -3.35,-0.205 -4.889,-0.818 l 0.207,-2.12 m 30.902,-1.573 c 0,1.332 0,2.7 0.138,4.102 h -2.087 v -3.11 h -0.067 c -0.718,1.57 -2.017,3.52 -5.64,3.52 -4.308,0 -5.95,-2.873 -5.95,-6.701 v -11.146 h 2.154 v 10.598 c 0,3.284 1.163,5.404 4.138,5.404 3.93,0 5.16,-3.455 5.16,-6.36 v -9.642 h 2.154 v 13.335 m 8.069,-13.335 h 2.153 v 17.437 h -2.152 v -17.437 z m 2.153,-4.649 h -2.152 v -2.87 h 2.153 v 2.87 m 6.769,19.556 c 1.299,0.65 2.872,1.095 4.547,1.095 2.051,0 3.862,-1.13 3.862,-3.112 0,-4.135 -8.376,-3.486 -8.376,-8.547 0,-3.453 2.803,-4.752 5.675,-4.752 0.923,0 2.77,0.205 4.307,0.785 l -0.205,1.882 c -1.127,-0.513 -2.665,-0.82 -3.862,-0.82 -2.222,0 -3.761,0.682 -3.761,2.905 0,3.248 8.58,2.838 8.58,8.547 0,3.693 -3.453,4.956 -6.084,4.956 -1.675,0 -3.35,-0.205 -4.888,-0.818 l 0.205,-2.12 m 15.966,-0.001 c 1.301,0.65 2.873,1.095 4.55,1.095 2.05,0 3.859,-1.13 3.859,-3.112 0,-4.135 -8.376,-3.486 -8.376,-8.547 0,-3.453 2.804,-4.752 5.679,-4.752 0.92,0 2.77,0.205 4.305,0.785 l -0.205,1.882 c -1.125,-0.513 -2.665,-0.82 -3.863,-0.82 -2.22,0 -3.76,0.682 -3.76,2.905 0,3.248 8.584,2.838 8.584,8.547 0,3.693 -3.458,4.956 -6.086,4.956 -1.677,0 -3.354,-0.205 -4.894,-0.818 l 0.207,-2.12 m 27.932,-7.42 c 0,-3.043 -1.23,-6.05 -4.443,-6.05 -3.184,0 -5.13,3.179 -5.13,6.05 h 9.572 z m 1.061,9.402 c -1.508,0.616 -3.453,0.956 -5.062,0.956 -5.777,0 -7.932,-3.897 -7.932,-9.127 0,-5.333 2.943,-9.128 7.35,-9.128 4.924,0 6.942,3.967 6.942,8.65 v 1.094 h -11.932 c 0,3.693 1.982,6.667 5.74,6.667 1.577,0 3.864,-0.65 4.894,-1.3 v 2.188 M 153.0433,106.744 c -1.504,-0.785 -3.66,-1.025 -5.334,-1.025 -6.187,0 -9.676,4.375 -9.676,10.29 0,6.016 3.386,10.29 9.676,10.29 1.572,0 3.966,-0.205 5.334,-1.026 l 0.136,2.051 c -1.3,0.788 -3.965,1.026 -5.47,1.026 -7.522,0 -12.033,-4.957 -12.033,-12.34 0,-7.248 4.649,-12.342 12.033,-12.342 1.401,0 4.24,0.238 5.47,0.887 l -0.136,2.19 m 14.803,19.761 c 3.762,0 5.777,-3.248 5.777,-7.284 0,-4.033 -2.015,-7.281 -5.777,-7.281 -3.76,0 -5.778,3.248 -5.778,7.28 0,4.037 2.018,7.285 5.778,7.285 z m 0,-16.412 c 5.641,0 8.137,4.376 8.137,9.128 0,4.752 -2.496,9.128 -8.137,9.128 -5.64,0 -8.136,-4.376 -8.136,-9.128 0,-4.752 2.496,-9.128 8.136,-9.128 m 14.871,4.514 c 0,-1.334 0,-2.7 -0.135,-4.104 h 2.084 v 3.112 h 0.07 c 0.716,-1.573 2.015,-3.522 5.638,-3.522 4.31,0 5.95,2.872 5.95,6.701 v 11.145 h -2.154 v -10.597 c 0,-3.281 -1.162,-5.401 -4.136,-5.401 -3.933,0 -5.163,3.452 -5.163,6.358 v 9.641 h -2.154 v -13.332 m 23.146,-2.259 h -3.522 v -1.846 h 3.521 v -1.264 c 0,-3.657 0.136,-7.35 4.614,-7.35 0.685,0 1.609,0.102 2.018,0.342 l -0.136,1.88 c -0.444,-0.24 -1.094,-0.376 -1.71,-0.376 -2.94,0 -2.632,3.18 -2.632,5.264 v 1.504 h 3.93 v 1.846 h -3.93 v 15.59 h -2.154 v -15.59 m 23.212,5.642 c 0,-3.044 -1.23,-6.051 -4.442,-6.051 -3.182,0 -5.13,3.179 -5.13,6.05 h 9.572 z m 1.061,9.401 c -1.504,0.617 -3.452,0.957 -5.06,0.957 -5.778,0 -7.932,-3.898 -7.932,-9.128 0,-5.332 2.941,-9.128 7.35,-9.128 4.924,0 6.941,3.967 6.941,8.65 v 1.094 h -11.931 c 0,3.693 1.984,6.668 5.743,6.668 1.573,0 3.865,-0.65 4.89,-1.3 v 2.187 m 14.562,-0.887 c 3.828,0 5.161,-4.105 5.161,-7.284 0,-3.179 -1.333,-7.281 -5.161,-7.281 -4.102,0 -5.164,3.898 -5.164,7.28 0,3.387 1.062,7.285 5.164,7.285 z m 7.316,1.434 h -2.155 v -2.77 h -0.067 c -1.164,2.223 -2.941,3.18 -5.437,3.18 -4.785,0 -7.179,-3.965 -7.179,-9.128 0,-5.299 2.051,-9.128 7.18,-9.128 3.419,0 5.127,2.497 5.436,3.35 h 0.067 v -11.145 h 2.155 v 25.641 m 18.494,-9.948 c 0,-3.044 -1.23,-6.051 -4.443,-6.051 -3.18,0 -5.13,3.179 -5.13,6.05 h 9.573 z m 1.06,9.401 c -1.503,0.617 -3.452,0.957 -5.06,0.957 -5.777,0 -7.931,-3.898 -7.931,-9.128 0,-5.332 2.941,-9.128 7.35,-9.128 4.923,0 6.941,3.967 6.941,8.65 v 1.094 h -11.933 c 0,3.693 1.985,6.668 5.744,6.668 1.573,0 3.864,-0.65 4.89,-1.3 v 2.187 m 8.069,-12.992 c 0,-1.913 0,-2.631 -0.136,-3.897 h 2.153 v 3.35 h 0.067 c 0.788,-1.946 2.258,-3.76 4.48,-3.76 a 6.43,6.43 0 0 1 1.504,0.205 v 2.258 c -0.445,-0.138 -1.025,-0.207 -1.572,-0.207 -3.42,0 -4.343,3.831 -4.343,6.974 v 8.616 h -2.153 v -13.539 m 23.863,4.752 h -0.616 c -3.726,0 -8.171,0.378 -8.171,4.207 0,2.29 1.642,3.146 3.624,3.146 5.058,0 5.163,-4.412 5.163,-6.292 v -1.06 z m 0.205,5.984 h -0.07 c -0.956,2.085 -3.383,3.213 -5.538,3.213 -4.957,0 -5.742,-3.35 -5.742,-4.923 0,-5.844 6.222,-6.118 10.734,-6.118 h 0.411 v -0.89 c 0,-2.974 -1.061,-4.478 -3.966,-4.478 -1.814,0 -3.522,0.41 -5.128,1.435 v -2.085 c 1.333,-0.65 3.588,-1.197 5.128,-1.197 4.307,0 6.12,1.95 6.12,6.496 v 7.693 c 0,1.402 0,2.46 0.17,3.657 h -2.12 v -2.803 m 8.136,0.993 10.496,-13.78 h -10.086 v -1.846 h 12.58 v 1.846 l -10.494,13.744 h 10.494 v 1.846 h -12.99 v -1.81 m 19.452,-15.627 h 2.154 v 17.437 h -2.154 v -17.436 z m 2.154,-4.649 h -2.154 v -2.87 h 2.154 v 2.87 m 14.905,20.652 c 3.762,0 5.777,-3.248 5.777,-7.284 0,-4.033 -2.015,-7.281 -5.777,-7.281 -3.76,0 -5.777,3.248 -5.777,7.28 0,4.037 2.017,7.285 5.777,7.285 z m 0,-16.412 c 5.641,0 8.138,4.376 8.138,9.128 0,4.752 -2.497,9.128 -8.138,9.128 -5.64,0 -8.136,-4.376 -8.136,-9.128 0,-4.752 2.496,-9.128 8.136,-9.128 m 14.871,4.514 c 0,-1.334 0,-2.7 -0.135,-4.104 h 2.084 v 3.112 h 0.07 c 0.716,-1.573 2.014,-3.522 5.639,-3.522 4.309,0 5.948,2.872 5.948,6.701 v 11.145 h -2.153 v -10.597 c 0,-3.281 -1.161,-5.401 -4.136,-5.401 -3.933,0 -5.163,3.452 -5.163,6.358 v 9.641 h -2.154 v -13.332 m 32.306,3.383 c 0,-3.044 -1.23,-6.051 -4.442,-6.051 -3.181,0 -5.13,3.179 -5.13,6.05 h 9.572 z m 1.062,9.401 c -1.504,0.617 -3.453,0.957 -5.061,0.957 -5.778,0 -7.931,-3.898 -7.931,-9.128 0,-5.332 2.94,-9.128 7.35,-9.128 4.923,0 6.94,3.967 6.94,8.65 v 1.094 h -11.932 c 0,3.693 1.984,6.668 5.744,6.668 1.573,0 3.864,-0.65 4.89,-1.3 v 2.187 m 19.488,-2.496 c 1.4,0.89 3.04,1.402 5.263,1.402 2.94,0 5.368,-1.504 5.368,-4.888 0,-4.685 -10.94,-5.266 -10.94,-11.521 0,-3.829 3.35,-6.222 7.556,-6.222 1.162,0 3.041,0.17 4.683,0.785 l -0.376,2.156 c -1.059,-0.583 -2.736,-0.89 -4.342,-0.89 -2.461,0 -5.161,1.025 -5.161,4.102 0,4.787 10.938,4.82 10.938,11.795 0,4.82 -4.136,6.734 -7.828,6.734 -2.325,0 -4.136,-0.478 -5.402,-1.026 l 0.24,-2.427 m 26.22,3.043 h -2.53 l -5.915,-17.436 h 2.36 l 4.821,15.078 h 0.067 l 5.061,-15.078 h 2.256 l -6.12,17.436 m 11.795,-17.437 h 2.155 v 17.437 h -2.155 v -17.436 z m 2.155,-4.649 h -2.155 v -2.87 h 2.155 v 2.87 m 6.497,20.276 10.497,-13.78 h -10.087 v -1.846 h 12.579 v 1.846 l -10.493,13.744 h 10.493 v 1.846 h -12.99 v -1.81 m 17.847,0 10.497,-13.78 h -10.087 v -1.846 h 12.579 v 1.846 l -10.493,13.744 h 10.493 v 1.846 h -12.99 v -1.81 m 30.079,-8.138 c 0,-3.044 -1.23,-6.051 -4.442,-6.051 -3.18,0 -5.13,3.179 -5.13,6.05 h 9.572 z m 1.062,9.401 c -1.503,0.617 -3.449,0.957 -5.057,0.957 -5.782,0 -7.932,-3.898 -7.932,-9.128 0,-5.332 2.938,-9.128 7.349,-9.128 4.925,0 6.939,3.967 6.939,8.65 v 1.094 h -11.933 c 0,3.693 1.987,6.668 5.745,6.668 1.572,0 3.864,-0.65 4.89,-1.3 v 2.187 m 8.068,-12.992 c 0,-1.913 0,-2.631 -0.132,-3.897 h 2.15 v 3.35 h 0.068 c 0.789,-1.946 2.256,-3.76 4.479,-3.76 0.515,0 1.13,0.103 1.504,0.205 v 2.258 c -0.442,-0.138 -1.026,-0.207 -1.572,-0.207 -3.417,0 -4.342,3.831 -4.342,6.974 v 8.616 h -2.155 v -13.539 m 23.864,4.752 h -0.615 c -3.727,0 -8.173,0.378 -8.173,4.207 0,2.29 1.644,3.146 3.626,3.146 5.057,0 5.162,-4.412 5.162,-6.292 v -1.06 z m 0.205,5.984 h -0.068 c -0.957,2.085 -3.385,3.213 -5.54,3.213 -4.957,0 -5.74,-3.35 -5.74,-4.923 0,-5.844 6.223,-6.118 10.733,-6.118 h 0.41 v -0.89 c 0,-2.974 -1.061,-4.478 -3.964,-4.478 -1.813,0 -3.521,0.41 -5.13,1.435 v -2.085 c 1.335,-0.65 3.59,-1.197 5.13,-1.197 4.306,0 6.12,1.95 6.12,6.496 v 7.693 c 0,1.402 0,2.46 0.168,3.657 h -2.119 v -2.803 m -390.826,28.76 c -1.504,-0.785 -3.66,-1.025 -5.334,-1.025 -6.187,0 -9.676,4.375 -9.676,10.291 0,6.015 3.386,10.289 9.676,10.289 1.572,0 3.966,-0.205 5.334,-1.026 l 0.136,2.051 c -1.3,0.788 -3.965,1.026 -5.47,1.026 -7.522,0 -12.033,-4.956 -12.033,-12.34 0,-7.248 4.649,-12.342 12.033,-12.342 1.401,0 4.24,0.238 5.47,0.887 l -0.136,2.19 m 14.803,19.761 c 3.762,0 5.777,-3.248 5.777,-7.284 0,-4.033 -2.015,-7.281 -5.777,-7.281 -3.76,0 -5.778,3.248 -5.778,7.281 0,4.036 2.018,7.284 5.778,7.284 z m 0,-16.412 c 5.641,0 8.137,4.377 8.137,9.128 0,4.752 -2.496,9.128 -8.137,9.128 -5.64,0 -8.136,-4.376 -8.136,-9.128 0,-4.751 2.496,-9.128 8.136,-9.128 m 14.871,4.515 c 0,-1.335 0,-2.701 -0.135,-4.105 h 2.084 v 3.112 h 0.07 c 0.716,-1.572 2.015,-3.522 5.638,-3.522 4.31,0 5.95,2.873 5.95,6.701 v 11.145 h -2.154 v -10.598 c 0,-3.28 -1.162,-5.401 -4.136,-5.401 -3.933,0 -5.163,3.453 -5.163,6.358 v 9.641 h -2.154 v -13.33 m 23.146,-2.26 h -3.522 v -1.846 h 3.521 v -1.264 c 0,-3.657 0.136,-7.35 4.614,-7.35 0.685,0 1.609,0.102 2.018,0.343 l -0.136,1.88 c -0.444,-0.24 -1.094,-0.376 -1.71,-0.376 -2.94,0 -2.632,3.179 -2.632,5.263 v 1.504 h 3.93 v 1.846 h -3.93 v 15.59 h -2.154 v -15.59 m 23.212,5.642 c 0,-3.043 -1.23,-6.051 -4.442,-6.051 -3.182,0 -5.13,3.18 -5.13,6.051 z m 1.061,9.401 c -1.504,0.617 -3.452,0.957 -5.06,0.957 -5.778,0 -7.932,-3.898 -7.932,-9.128 0,-5.332 2.941,-9.128 7.35,-9.128 4.924,0 6.941,3.967 6.941,8.65 v 1.094 h -11.931 c 0,3.693 1.984,6.668 5.743,6.668 1.573,0 3.865,-0.65 4.89,-1.3 v 2.187 m 14.562,-0.887 c 3.828,0 5.161,-4.105 5.161,-7.284 0,-3.179 -1.333,-7.281 -5.161,-7.281 -4.102,0 -5.164,3.898 -5.164,7.281 0,3.386 1.062,7.284 5.164,7.284 z m 7.316,1.434 h -2.155 v -2.77 h -0.067 c -1.164,2.223 -2.941,3.18 -5.437,3.18 -4.785,0 -7.179,-3.965 -7.179,-9.128 0,-5.299 2.051,-9.128 7.18,-9.128 3.419,0 5.127,2.497 5.436,3.351 h 0.067 v -11.146 h 2.155 v 25.641 m 18.494,-9.948 c 0,-3.043 -1.23,-6.051 -4.443,-6.051 -3.18,0 -5.13,3.18 -5.13,6.051 z m 1.06,9.401 c -1.503,0.617 -3.452,0.957 -5.06,0.957 -5.777,0 -7.931,-3.898 -7.931,-9.128 0,-5.332 2.941,-9.128 7.35,-9.128 4.923,0 6.941,3.967 6.941,8.65 v 1.094 h -11.933 c 0,3.693 1.985,6.668 5.744,6.668 1.573,0 3.864,-0.65 4.89,-1.3 v 2.187 m 8.069,-12.992 c 0,-1.913 0,-2.631 -0.136,-3.897 h 2.153 v 3.35 h 0.067 c 0.788,-1.946 2.258,-3.76 4.48,-3.76 0.512,0 1.128,0.103 1.504,0.206 v 2.258 c -0.445,-0.139 -1.025,-0.208 -1.572,-0.208 -3.42,0 -4.343,3.831 -4.343,6.975 v 8.615 h -2.153 v -13.539 m 23.863,4.752 h -0.616 c -3.726,0 -8.171,0.378 -8.171,4.207 0,2.29 1.642,3.146 3.624,3.146 5.058,0 5.163,-4.412 5.163,-6.292 v -1.06 z m 0.205,5.984 h -0.07 c -0.956,2.085 -3.383,3.213 -5.538,3.213 -4.957,0 -5.742,-3.35 -5.742,-4.923 0,-5.844 6.222,-6.118 10.734,-6.118 h 0.411 v -0.89 c 0,-2.974 -1.061,-4.478 -3.966,-4.478 -1.814,0 -3.522,0.409 -5.128,1.435 v -2.085 c 1.333,-0.65 3.588,-1.197 5.128,-1.197 4.307,0 6.12,1.95 6.12,6.496 v 7.693 c 0,1.402 0,2.46 0.17,3.657 h -2.12 v -2.803 m 8.136,0.993 10.496,-13.78 h -10.086 v -1.846 h 12.58 v 1.846 l -10.494,13.744 h 10.494 v 1.846 h -12.99 v -1.81 m 19.452,-15.626 h 2.154 v 17.436 h -2.154 z m 2.154,-4.65 h -2.154 v -2.87 h 2.154 v 2.87 m 21.708,17.984 c 0,1.333 0,2.701 0.138,4.102 h -2.087 v -3.11 h -0.067 c -0.718,1.571 -2.018,3.52 -5.642,3.52 -4.306,0 -5.948,-2.87 -5.948,-6.7 v -11.146 h 2.153 v 10.598 c 0,3.283 1.164,5.404 4.138,5.404 3.931,0 5.161,-3.455 5.161,-6.36 v -9.642 h 2.154 v 13.334 m 8.068,-9.229 c 0,-1.335 0,-2.701 -0.135,-4.105 h 2.084 v 3.112 h 0.07 c 0.716,-1.572 2.014,-3.522 5.639,-3.522 4.309,0 5.948,2.873 5.948,6.701 v 11.145 h -2.153 v -10.598 c 0,-3.28 -1.161,-5.401 -4.136,-5.401 -3.933,0 -5.163,3.453 -5.163,6.358 v 9.641 h -2.154 v -13.33 m 32.17,10.8 c 1.3,0.65 2.873,1.096 4.548,1.096 2.051,0 3.862,-1.13 3.862,-3.112 0,-4.136 -8.376,-3.487 -8.376,-8.548 0,-3.452 2.803,-4.752 5.675,-4.752 0.923,0 2.77,0.206 4.307,0.788 l -0.204,1.88 c -1.128,-0.514 -2.666,-0.821 -3.863,-0.821 -2.222,0 -3.761,0.683 -3.761,2.905 0,3.248 8.58,2.839 8.58,8.548 0,3.692 -3.453,4.956 -6.084,4.956 -1.675,0 -3.35,-0.205 -4.888,-0.819 l 0.205,-2.12 m 23.349,2.529 h -2.529 l -5.915,-17.436 h 2.36 l 4.82,15.078 h 0.067 l 5.062,-15.078 h 2.255 l -6.12,17.436 m 11.795,-17.436 h 2.154 v 17.436 h -2.154 z m 2.154,-4.65 h -2.154 v -2.87 h 2.154 v 2.87 m 6.496,20.276 10.495,-13.78 h -10.086 v -1.846 h 12.58 v 1.846 l -10.493,13.744 h 10.493 v 1.846 h -12.99 v -1.81 m 19.453,-11.729 c 0,-1.913 0,-2.631 -0.137,-3.897 h 2.155 v 3.35 h 0.068 c 0.784,-1.946 2.255,-3.76 4.479,-3.76 0.51,0 1.125,0.103 1.503,0.206 v 2.258 c -0.446,-0.139 -1.025,-0.208 -1.572,-0.208 -3.421,0 -4.341,3.831 -4.341,6.975 v 8.615 h -2.155 v -13.539 m 23.864,4.752 h -0.615 c -3.727,0 -8.174,0.378 -8.174,4.207 0,2.29 1.64,3.146 3.627,3.146 5.057,0 5.162,-4.412 5.162,-6.292 v -1.06 z m 0.205,5.984 h -0.068 c -0.957,2.085 -3.385,3.213 -5.54,3.213 -4.957,0 -5.741,-3.35 -5.741,-4.923 0,-5.844 6.219,-6.118 10.73,-6.118 h 0.414 v -0.89 c 0,-2.974 -1.062,-4.478 -3.968,-4.478 -1.814,0 -3.522,0.41 -5.126,1.435 v -2.085 c 1.33,-0.65 3.586,-1.197 5.126,-1.197 4.31,0 6.118,1.95 6.118,6.496 v 7.693 c 0,1.402 0,2.46 0.174,3.657 h -2.119 v -2.803"
     id="path2" />
  <path
     d="m 96.889303,8.7200031 c 0,0 -18.082,-7.92000001 -48.354,-7.92000001 h -0.01 c -30.272,0 -48.3590001,7.92000001 -48.3590001,7.92000001 0,0 -1.619,35.0649999 5.246,54.8909999 C 17.536303,98.471003 48.522303,108.264 48.522303,108.264 h 0.017 c 0,0 30.98,-9.792997 43.108,-44.652997 6.865,-19.826 5.241,-54.8899999 5.241,-54.8899999"
     fill="#ff0000"
     id="path4" />
  <path
     d="m 80.667303,38.949003 v 19.318 h -22.54 v 22.54 h -19.319 v -22.54 h -22.54 v -19.318 h 22.54 v -22.536 h 19.315 l 0.004,22.536 h 22.54"
     fill="#ffffff"
     id="path6" />
</svg>
