<svg width="44" height="44" viewBox="0 0 44 44" xmlns="http://www.w3.org/2000/svg">
<path d="M43.6187 40.6055L29.4164 26.4031C31.6203 23.5539 32.8125 20.0703 32.8125 16.4062C32.8125 12.0203 31.1008 7.90781 28.0055 4.80703C24.9102 1.70625 20.7867 0 16.4062 0C12.0258 0 7.90234 1.71172 4.80703 4.80703C1.70625 7.90234 0 12.0203 0 16.4062C0 20.7867 1.71172 24.9102 4.80703 28.0055C7.90234 31.1062 12.0203 32.8125 16.4062 32.8125C20.0703 32.8125 23.5484 31.6203 26.3977 29.4219L40.6 43.6187C40.6416 43.6604 40.6911 43.6935 40.7455 43.716C40.7999 43.7386 40.8583 43.7502 40.9172 43.7502C40.9761 43.7502 41.0344 43.7386 41.0889 43.716C41.1433 43.6935 41.1927 43.6604 41.2344 43.6187L43.6187 41.2398C43.6604 41.1982 43.6935 41.1488 43.716 41.0943C43.7386 41.0399 43.7502 40.9816 43.7502 40.9227C43.7502 40.8637 43.7386 40.8054 43.716 40.751C43.6935 40.6966 43.6604 40.6471 43.6187 40.6055V40.6055ZM25.0688 25.0688C22.75 27.382 19.6766 28.6562 16.4062 28.6562C13.1359 28.6562 10.0625 27.382 7.74375 25.0688C5.43047 22.75 4.15625 19.6766 4.15625 16.4062C4.15625 13.1359 5.43047 10.057 7.74375 7.74375C10.0625 5.43047 13.1359 4.15625 16.4062 4.15625C19.6766 4.15625 22.7555 5.425 25.0688 7.74375C27.382 10.0625 28.6562 13.1359 28.6562 16.4062C28.6562 19.6766 27.382 22.7555 25.0688 25.0688Z"/>
</svg>
