<svg xmlns="http://www.w3.org/2000/svg" width="30" height="30" viewBox="0 0 30 30"><title>twitter</title><path d="M28.45968 6.51145a7.9802 7.9802.0 0 0 .37692-2.66751 14.5574 14.5574.0 0 1-3.97623.85316 6.81938 6.81938.0 0 0-4.23206-1.47725L20.569 3.2202l-.12184-.00143a6.83989 6.83989.0 0 0-4.857 2.0059 6.70224 6.70224.0 0 0-1.9988 4.11726A12.4262 12.4262.0 0 1 6.087 4.84678L4.48038 2.82885 3.1677 5.04927a6.8239 6.8239.0 0 0-.94882 3.41487c-.00808.23641-.05413 3.69985-.05413 3.69985v.05293a6.58992 6.58992.0 0 0 1.45038 4.19231l.46519 1.488a6.68428 6.68428.0 0 0 2.21779 3.22653C4.29094 22.06973.0 21.57464.0 21.57464c.5113 1.25963 2.751 5.58511 10.83582 5.58511l.03678-11e-5q.29977.01152.599.01151A15.64309 15.64309.0 0 0 23.03123 22.0534a16.48917 16.48917.0 0 0 4.54791-11.0803A7.59576 7.59576.0 0 0 30 6.04283zm-2.846 3.679v.625a14.497 14.497.0 0 1-3.99905 9.92212 13.57737 13.57737.0 0 1-10.064 4.46422c-.18456.0-.37-.00377-.55526-.01136l-.0685 17e-5A14.322 14.322.0 0 1 3.156 22.89913a11.37688 11.37688.0 0 0 1.21819.10386l.08863 39e-5A10.07051 10.07051.0 0 0 10.73 20.8155a5.21242 5.21242.0 0 1-2.96637-1.01543 4.77416 4.77416.0 0 1-1.80094-2.474 6.47216 6.47216.0 0 0 .95383.1038 6.0575 6.0575.0 0 0 1.377-.20862A5.19561 5.19561.0 0 1 5.354 15.47607a4.75266 4.75266.0 0 1-1.19134-3.20291v-.05193a4.8918 4.8918.0 0 0 2.33074.625A4.70956 4.70956.0 0 1 4.21557 8.628a4.94651 4.94651.0 0 1 .68845-2.5A13.96378 13.96378.0 0 0 15.4444 11.38857a4.4823 4.4823.0 0 1-.10577-1.14615 4.84254 4.84254.0 0 1 1.48268-3.59424 5.01054 5.01054.0 0 1 3.53534-1.46009q.05968.0.11948.00141l.05822-34e-5a4.93209 4.93209.0 0 1 3.64949 1.61475 9.64461 9.64461.0 0 0 3.28367-1.25A4.63382 4.63382.0 0 1 25.1896 8.36645V8.3674A8.86423 8.86423.0 0 0 28.156 7.58566 9.91377 9.91377.0 0 1 25.61363 10.19049z"/></svg>