<svg viewBox="0 0 30 30" xmlns="http://www.w3.org/2000/svg"><path d="m22.79066 4.92139c-3.708-.25635-11.86132-.25635-15.581 0-5.07525.35161-5.34966 4.05713-5.377 10.083.02734 6.01661.30175 9.72168 5.377 10.07422 1.85938.12842 4.82715.19287 7.794.19287s5.93261-.06445 7.7871-.19287c5.0752-.35156 5.34961-4.05713 5.377-10.083-.02749-6.01661-.3019-9.72168-5.3771-10.07422zm-.13866 18.16211c-3.56933.24707-11.72265.24707-15.30371 0-2.92676-.20362-3.48535-1.48829-3.51562-8.07911.03027-6.60009.58886-7.88476 3.51562-8.08789 1.79-.124 4.72266-.18554 7.65528-.18554 2.93164 0 5.86328.062 7.64843.18554 2.92676.20362 3.48535 1.48829 3.51563 8.07911-.03029 6.60009-.58888 7.88476-3.51563 8.08789zm-11.57325-2.46631 10.86231-5.62549-10.86231-5.60645zm2-7.94873 4.50684 2.32617-4.50684 2.33447z"/></svg>